<svg xmlns="http://www.w3.org/2000/svg" xmlns:xlink="http://www.w3.org/1999/xlink" width="400" zoomAndPan="magnify" viewBox="0 0 300 299.999988" height="400" preserveAspectRatio="xMidYMid meet" version="1.0"><defs><g/></defs><g fill="#7ed957" fill-opacity="1"><g transform="translate(2.656146, 245.261732)"><g><path d="M 140.984375 -91.828125 C 140.984375 -75.828125 139.269531 -61.921875 135.84375 -50.109375 C 132.414062 -38.296875 127.671875 -28.535156 121.609375 -20.828125 C 115.554688 -13.117188 108.398438 -7.378906 100.140625 -3.609375 C 91.890625 0.148438 82.984375 2.03125 73.421875 2.03125 C 63.847656 2.03125 54.972656 0.148438 46.796875 -3.609375 C 38.628906 -7.378906 31.539062 -13.117188 25.53125 -20.828125 C 19.519531 -28.535156 14.816406 -38.296875 11.421875 -50.109375 C 8.035156 -61.921875 6.34375 -75.828125 6.34375 -91.828125 C 6.34375 -107.921875 8.035156 -121.851562 11.421875 -133.625 C 14.816406 -145.394531 19.519531 -155.128906 25.53125 -162.828125 C 31.539062 -170.535156 38.628906 -176.273438 46.796875 -180.046875 C 54.972656 -183.816406 63.847656 -185.703125 73.421875 -185.703125 C 82.984375 -185.703125 91.890625 -183.816406 100.140625 -180.046875 C 108.398438 -176.273438 115.554688 -170.535156 121.609375 -162.828125 C 127.671875 -155.128906 132.414062 -145.394531 135.84375 -133.625 C 139.269531 -121.851562 140.984375 -107.921875 140.984375 -91.828125 Z M 108.59375 -91.828125 C 108.59375 -105.128906 107.617188 -116.140625 105.671875 -124.859375 C 103.722656 -133.578125 101.117188 -140.519531 97.859375 -145.6875 C 94.597656 -150.851562 90.851562 -154.472656 86.625 -156.546875 C 82.394531 -158.617188 77.992188 -159.65625 73.421875 -159.65625 C 68.929688 -159.65625 64.585938 -158.617188 60.390625 -156.546875 C 56.203125 -154.472656 52.5 -150.851562 49.28125 -145.6875 C 46.0625 -140.519531 43.5 -133.578125 41.59375 -124.859375 C 39.6875 -116.140625 38.734375 -105.128906 38.734375 -91.828125 C 38.734375 -78.535156 39.6875 -67.523438 41.59375 -58.796875 C 43.5 -50.078125 46.0625 -43.132812 49.28125 -37.96875 C 52.5 -32.8125 56.203125 -29.191406 60.390625 -27.109375 C 64.585938 -25.035156 68.929688 -24 73.421875 -24 C 77.992188 -24 82.394531 -25.035156 86.625 -27.109375 C 90.851562 -29.191406 94.597656 -32.8125 97.859375 -37.96875 C 101.117188 -43.132812 103.722656 -50.078125 105.671875 -58.796875 C 107.617188 -67.523438 108.59375 -78.535156 108.59375 -91.828125 Z M 108.59375 -91.828125 "/></g></g></g><g fill="#7ed957" fill-opacity="1"><g transform="translate(149.994919, 245.261732)"><g><path d="M 34.171875 -23.5 L 71.375 -23.5 L 71.375 -130.578125 C 71.375 -134.722656 71.503906 -139.082031 71.765625 -143.65625 L 45.34375 -121.546875 C 44.238281 -120.617188 43.113281 -119.984375 41.96875 -119.640625 C 40.832031 -119.304688 39.710938 -119.140625 38.609375 -119.140625 C 36.921875 -119.140625 35.375 -119.5 33.96875 -120.21875 C 32.570312 -120.9375 31.535156 -121.765625 30.859375 -122.703125 L 20.953125 -136.28125 L 76.96875 -183.921875 L 102.75 -183.921875 L 102.75 -23.5 L 135.78125 -23.5 L 135.78125 0 L 34.171875 0 Z M 34.171875 -23.5 "/></g></g></g></svg>